<svg width="39" height="39" viewBox="0 0 39 39" fill="none" xmlns="http://www.w3.org/2000/svg">
<path d="M17.55 31.2H21.45V27.3H17.55V31.2ZM19.5 0C8.736 0 0 8.736 0 19.5C0 30.264 8.736 39 19.5 39C30.264 39 39 30.264 39 19.5C39 8.736 30.264 0 19.5 0ZM19.5 35.1C10.9005 35.1 3.9 28.0995 3.9 19.5C3.9 10.9005 10.9005 3.9 19.5 3.9C28.0995 3.9 35.1 10.9005 35.1 19.5C35.1 28.0995 28.0995 35.1 19.5 35.1ZM19.5 7.8C15.1905 7.8 11.7 11.2905 11.7 15.6H15.6C15.6 13.455 17.355 11.7 19.5 11.7C21.645 11.7 23.4 13.455 23.4 15.6C23.4 19.5 17.55 19.0125 17.55 25.35H21.45C21.45 20.9625 27.3 20.475 27.3 15.6C27.3 11.2905 23.8095 7.8 19.5 7.8Z" fill="#F2F2F2"/>
</svg>
