<svg width="43" height="34" viewBox="0 0 43 34" fill="none" xmlns="http://www.w3.org/2000/svg">
<path d="M18.6978 17.0713V32.6699H37.7928C39.19 32.6699 41.9844 31.9136 41.9844 28.8884V22.2708C40.2767 21.9557 37.327 20.3801 37.327 17.0713" stroke="#02042E" stroke-width="2"/>
<path d="M18.6978 17.0713V1.00008H37.7928C39.19 1.00008 41.9844 1.75637 41.9844 4.78155V11.3991C40.2767 11.7142 37.327 13.2898 37.327 16.5986" stroke="#02042E" stroke-width="2"/>
<path d="M37.3271 16.5986V17.0713" stroke="#02042E" stroke-width="2"/>
<path d="M14.0405 16.835V1.00007H3.34732C2.56489 1.00007 1.00003 1.76782 1.00003 4.83883V11.5567C1.95633 11.8766 5.19162 13.476 5.19162 16.835" stroke="#02042E" stroke-width="2"/>
<path d="M14.0405 16.835V32.6699H3.34732C2.56489 32.6699 1.00003 31.9021 1.00003 28.8311V22.1133C1.95633 21.7934 5.19162 20.1939 5.19162 16.835" stroke="#02042E" stroke-width="2"/>
</svg>
