<svg width="40" height="42" viewBox="0 0 40 42" fill="none" xmlns="http://www.w3.org/2000/svg">
<path d="M15.9637 40C15.4567 40 15.0299 39.6206 14.9706 39.117L14.4273 34.506C14.3847 34.1444 14.146 33.8401 13.8221 33.6739C13.6287 33.5747 13.4414 33.4668 13.2603 33.35C13.0827 33.2355 12.9073 33.1168 12.7342 32.9939C12.4338 32.7806 12.0438 32.7311 11.7074 32.881L7.76822 34.6368C7.29218 34.849 6.73299 34.66 6.48331 34.2025L2.40088 26.7221C2.16888 26.297 2.27484 25.7667 2.65238 25.4634L6.17183 22.6361C6.44498 22.4166 6.57432 22.0703 6.5679 21.72C6.56741 21.6933 6.56716 21.6667 6.56716 21.6403V20.3597C6.56716 20.3333 6.56741 20.3067 6.5679 20.28C6.57432 19.9297 6.44498 19.5834 6.17183 19.3639L2.65238 16.5366C2.27484 16.2333 2.16888 15.703 2.40088 15.2779L6.48331 7.79751C6.73299 7.34001 7.29218 7.151 7.76822 7.36318L11.7084 9.11945C12.0443 9.26916 12.4334 9.21964 12.7353 9.00975C12.914 8.88553 13.0968 8.76561 13.2836 8.65C13.4706 8.53428 13.6576 8.42718 13.8446 8.32872C14.1576 8.16392 14.3836 7.86445 14.425 7.51314L14.9706 2.88298C15.0299 2.37945 15.4567 2 15.9637 2H24.0363C24.5433 2 24.9701 2.37944 25.0294 2.88298L25.5727 7.49402C25.6153 7.85555 25.854 8.15993 26.1779 8.32605C26.3713 8.42525 26.5586 8.53323 26.7397 8.65C26.9173 8.76449 27.0927 8.8832 27.2659 9.00614C27.5662 9.21939 27.9562 9.26893 28.2927 9.11896L32.2318 7.36318C32.7078 7.151 33.267 7.34001 33.5167 7.79751L37.5991 15.2779C37.8311 15.703 37.7252 16.2333 37.3476 16.5366L33.8282 19.3639C33.555 19.5834 33.4257 19.9297 33.4321 20.28C33.4326 20.3067 33.4328 20.3333 33.4328 20.3597V21.6403V21.6403C33.4328 22.0354 33.5422 22.4423 33.8502 22.6898L37.3028 25.4634C37.6804 25.7667 37.7863 26.297 37.5543 26.7221L33.4733 34.1999C33.2231 34.6585 32.662 34.8472 32.1855 34.633L28.2927 32.8831C27.9563 32.7319 27.5659 32.781 27.263 32.9915C27.0848 33.1153 26.9026 33.2348 26.7164 33.35C26.5294 33.4657 26.3424 33.5728 26.1554 33.6713C25.8424 33.8361 25.6164 34.1355 25.575 34.4869L25.0294 39.117C24.9701 39.6206 24.5433 40 24.0363 40H15.9637ZM20.0896 27.65C21.8209 27.65 23.2985 27.0008 24.5224 25.7025C25.7463 24.4042 26.3582 22.8367 26.3582 21C26.3582 19.1633 25.7463 17.5958 24.5224 16.2975C23.2985 14.9992 21.8209 14.35 20.0896 14.35C18.3284 14.35 16.843 14.9992 15.6334 16.2975C14.4239 17.5958 13.8197 19.1633 13.8209 21C13.8209 22.8367 14.4251 24.4042 15.6334 25.7025C16.8418 27.0008 18.3272 27.65 20.0896 27.65Z" stroke="#02042E" stroke-width="3.5"/>
</svg>
