<svg width="36" height="33" viewBox="0 0 36 33" fill="none" xmlns="http://www.w3.org/2000/svg">
<path fill-rule="evenodd" clip-rule="evenodd" d="M26.7907 11H26.1163H25.9535H25.1163V6.76923H0V5.92308V5.76923V5.07692V4.92308V4.07692H25.1163V0H25.9535H26.1163H26.7907H26.9535H27.7907V11H26.9535H26.7907ZM30.9767 5.76923V5.07692V4.92308V4.07692H36V4.92308V5.07692V5.76923V5.92308V6.76923H30.9767V5.92308V5.76923ZM36 16.7692V16.0769V15.9231V15.0769H10.8837L10.8837 11H10.0465H9.88372H9.2093H9.04651H8.2093V22H9.04651H9.2093H9.88372H10.0465H10.8837L10.8837 17.7692H36V16.9231V16.7692ZM5.02326 16.0769V16.7692V16.9231V17.7692H0V16.9231V16.7692V16.0769V15.9231V15.0769H5.02326V15.9231V16.0769ZM0 27.0769V27.7692V27.9231V28.7692H15.907V33H16.7442H16.907H17.5814H17.7442H18.5814V22H17.7442H17.5814H16.907H16.7442H15.907V26.0769H0V26.9231V27.0769ZM21.7674 27.7692V27.0769V26.9231V26.0769H26.7907H31.814H36V26.9231V27.0769V27.7692V27.9231V28.7692H31.814H26.7907H21.7674V27.9231V27.7692Z" fill="#02042E"/>
</svg>
