<svg width="41" height="47" viewBox="0 0 41 47" fill="none" xmlns="http://www.w3.org/2000/svg">
<path d="M18.4756 45.353L18.4684 45.3477L18.4611 45.3425C16.3432 43.8323 14.0771 42.6117 11.6642 41.6817C9.25483 40.7531 6.73858 40.1156 4.1175 39.7682L4.11662 39.7681C3.19709 39.6471 2.46207 39.2715 1.86703 38.6394C1.27143 38.0067 1 37.3207 1 36.5431V20.689C1 19.5249 1.39054 18.6253 2.1614 17.9088C2.92099 17.2027 3.76604 16.9495 4.78837 17.1213L4.78975 17.1216C7.6202 17.5933 10.3102 18.4455 12.8629 19.678C15.4101 20.908 17.7272 22.4993 19.8167 24.455L20.4998 25.0943L21.1831 24.4552C23.2741 22.4995 25.5921 20.908 28.1394 19.678C30.6921 18.4455 33.3814 17.5933 36.2103 17.1215L36.2127 17.1211C37.2342 16.9483 38.0786 17.2011 38.838 17.9082C39.6097 18.6267 40 19.5267 40 20.689V36.5431C40 37.3226 39.7283 38.0092 39.133 38.6417C38.5382 39.2735 37.8037 39.6482 36.8847 39.768L36.8824 39.7682C34.2629 40.1157 31.7467 40.7531 29.336 41.6817C26.9215 42.6116 24.6552 43.8324 22.5386 45.3427L22.5314 45.3478L22.5244 45.353C21.9454 45.7818 21.283 46 20.5 46C19.717 46 19.0546 45.7818 18.4756 45.353ZM20.5 16.9904C18.2577 16.9904 16.3651 16.2134 14.7678 14.6365C13.171 13.0599 12.3889 11.1974 12.3889 8.99522C12.3889 6.79303 13.171 4.93051 14.7678 3.35396C16.3651 1.77703 18.2577 1 20.5 1C22.7423 1 24.6349 1.77703 26.2322 3.35396C27.829 4.93051 28.6111 6.79303 28.6111 8.99522C28.6111 11.1974 27.829 13.0599 26.2322 14.6365C24.6349 16.2134 22.7423 16.9904 20.5 16.9904Z" stroke="#02042E" stroke-width="2"/>
</svg>
