<svg width="32" height="25" viewBox="0 0 32 25" fill="none" xmlns="http://www.w3.org/2000/svg">
<path d="M1.66016 21.8521V21.8509V13.7703H2.18374H29.6082H30.1318V21.8509C30.1318 22.4136 29.9419 22.872 29.5312 23.2799C29.1204 23.688 28.6566 23.8785 28.0858 23.8778H28.0846H3.70732C3.13477 23.8778 2.67011 23.6866 2.25924 23.2784C1.84861 22.8705 1.65947 22.413 1.66016 21.8521ZM2.18374 5.71658H1.66016V3.68971C1.66016 3.12707 1.8501 2.66863 2.26076 2.2607C2.6716 1.8526 3.13536 1.66216 3.70612 1.66284H3.70732H28.0846C28.6572 1.66284 29.1218 1.85407 29.5327 2.26221C29.9433 2.67011 30.1325 3.12765 30.1318 3.68849V3.68971V5.71658H29.6082H2.18374Z" stroke="white" stroke-width="2"/>
</svg>
