<svg width="56" height="55" viewBox="0 0 56 55" fill="none" xmlns="http://www.w3.org/2000/svg">
<rect width="56" height="55" rx="27.5" fill="#0B1433"/>
<path d="M15.6734 37.878C14.8388 37.878 14.1242 37.5814 13.5294 36.9881C12.9346 36.3949 12.6377 35.6825 12.6387 34.8512V16.69C12.6387 15.8576 12.9361 15.1447 13.5309 14.5515C14.1257 13.9582 14.8399 13.6621 15.6734 13.6631H39.9511C40.7856 13.6631 41.5003 13.9597 42.0951 14.553C42.6899 15.1463 42.9868 15.8586 42.9858 16.69V34.8512C42.9858 35.6835 42.6884 36.3964 42.0936 36.9896C41.4988 37.5829 40.7846 37.879 39.9511 37.878H15.6734ZM13 25.7706H42.7852V19.7168H13V25.7706Z" stroke="white" stroke-width="2"/>
</svg>
