<svg width="45" height="56" viewBox="0 0 45 56" fill="none" xmlns="http://www.w3.org/2000/svg">
<path d="M19.8806 53.1567C17.8306 51.695 15.6386 50.5144 13.3046 49.6148C10.9706 48.7153 8.53115 48.0969 5.98611 47.7596C4.84722 47.6096 3.89815 47.1314 3.13889 46.3248C2.37963 45.5183 2 44.591 2 43.5431V27.689C2 26.2648 2.49352 25.0939 3.48056 24.1764C4.46759 23.2589 5.62546 22.9118 6.95417 23.1352C9.87731 23.6224 12.6585 24.5032 15.2977 25.7775C17.9369 27.0518 20.3376 28.701 22.5 30.7249C24.6639 28.701 27.0654 27.0518 29.7046 25.7775C32.3438 24.5032 35.1242 23.6224 38.0458 23.1352C39.3745 22.9103 40.5324 23.2574 41.5194 24.1764C42.5065 25.0954 43 26.2663 43 27.689V43.5431C43 44.5925 42.6204 45.5205 41.8611 46.3271C41.1019 47.1337 40.1528 47.6111 39.0139 47.7596C36.4704 48.0969 34.0309 48.7153 31.6954 49.6148C29.3599 50.5144 27.1679 51.695 25.1194 53.1567C24.3602 53.7189 23.487 54 22.5 54C21.513 54 20.6398 53.7189 19.8806 53.1567ZM22.5 19.9904C19.9944 19.9904 17.8495 19.1096 16.0653 17.3481C14.281 15.5865 13.3889 13.4689 13.3889 10.9952C13.3889 8.52153 14.281 6.40391 16.0653 4.64234C17.8495 2.88078 19.9944 2 22.5 2C25.0056 2 27.1505 2.88078 28.9347 4.64234C30.719 6.40391 31.6111 8.52153 31.6111 10.9952C31.6111 13.4689 30.719 15.5865 28.9347 17.3481C27.1505 19.1096 25.0056 19.9904 22.5 19.9904Z" stroke="#F2F2F2" stroke-width="3"/>
</svg>
