<svg width="411" height="204" viewBox="0 0 411 204" fill="none" xmlns="http://www.w3.org/2000/svg">
<path d="M82.1144 152.445C70.8874 152.445 60.7336 149.79 51.6529 144.481C42.5722 139 35.3077 131.207 29.8593 121.102C24.576 110.826 21.9343 98.3232 21.9343 83.5939C21.9343 68.8646 24.8236 55.8936 30.1069 45.7886C35.3902 35.5124 42.3246 28.2735 51.4052 22.9641C60.4859 17.6547 70.7223 15 82.1144 15C94.4972 15 105.559 17.9116 115.3 23.7348C125.206 29.3867 132.966 37.4365 138.58 47.884C144.193 58.1602 147 70.0635 147 83.5939C147 97.2956 144.193 109.285 138.58 119.561C132.966 129.837 125.206 137.887 115.3 143.71C105.559 149.533 94.4972 152.445 82.1144 152.445ZM15 201L15.6298 80.5463C15.7574 56.146 29.5863 33.8877 51.4052 22.9641L41.9813 39.2985C35.3106 50.8609 31.3952 63.8054 30.5391 77.1266C30.2514 81.6027 30.311 86.0943 30.7172 90.5612L32.5835 111.083V201H15ZM80.8762 136.26C90.122 136.26 98.3771 134.119 105.642 129.837C112.906 125.384 118.685 119.218 122.978 111.34C127.27 103.29 129.417 94.0414 129.417 83.5939C129.417 73.1464 127.27 63.9834 122.978 56.105C118.685 48.2265 112.906 42.0608 105.642 37.6077C98.3771 33.1547 90.122 30.9282 80.8762 30.9282C71.6304 30.9282 63.2927 33.1547 55.863 37.6077C48.5985 42.0608 42.8199 48.2265 38.5272 56.105C34.3996 63.9834 32.3358 73.1464 32.3358 83.5939C32.3358 94.0414 34.3996 103.29 38.5272 111.34C42.8199 119.218 48.5985 125.384 55.863 129.837C63.2927 134.119 71.6304 136.26 80.8762 136.26Z" fill="#00C5FF"/>
<path d="M82.1144 152.445C70.8874 152.445 60.7336 149.79 51.6529 144.481C42.5722 139 35.3077 131.207 29.8593 121.102C24.576 110.826 21.9343 98.3232 21.9343 83.5939C21.9343 68.8646 24.8236 55.8936 30.1069 45.7886C35.3902 35.5124 42.3246 28.2735 51.4052 22.9641C60.4859 17.6547 70.7223 15 82.1144 15C94.4972 15 105.559 17.9116 115.3 23.7348C125.206 29.3867 132.966 37.4365 138.58 47.884C144.193 58.1602 147 70.0635 147 83.5939C147 97.2956 144.193 109.285 138.58 119.561C132.966 129.837 125.206 137.887 115.3 143.71C105.559 149.533 94.4972 152.445 82.1144 152.445ZM15 201L15.6298 80.5463C15.7574 56.146 29.5863 33.8877 51.4052 22.9641L41.9813 39.2985C35.3106 50.8609 31.3952 63.8054 30.5391 77.1266C30.2514 81.6027 30.311 86.0943 30.7172 90.5612L32.5835 111.083V201H15ZM80.8762 136.26C90.122 136.26 98.3771 134.119 105.642 129.837C112.906 125.384 118.685 119.218 122.978 111.34C127.27 103.29 129.417 94.0414 129.417 83.5939C129.417 73.1464 127.27 63.9834 122.978 56.105C118.685 48.2265 112.906 42.0608 105.642 37.6077C98.3771 33.1547 90.122 30.9282 80.8762 30.9282C71.6304 30.9282 63.2927 33.1547 55.863 37.6077C48.5985 42.0608 42.8199 48.2265 38.5272 56.105C34.3996 63.9834 32.3358 73.1464 32.3358 83.5939C32.3358 94.0414 34.3996 103.29 38.5272 111.34C42.8199 119.218 48.5985 125.384 55.863 129.837C63.2927 134.119 71.6304 136.26 80.8762 136.26Z" fill="#00C5FF"/>
<path d="M187.215 100.44C180.687 100.44 174.783 98.7599 169.503 95.3999C164.223 91.9439 160.047 87.2879 156.975 81.4319C153.903 75.4799 152.367 68.7599 152.367 61.2719C152.367 53.6879 153.951 46.9679 157.119 41.1119C160.287 35.2559 164.511 30.6479 169.791 27.2879C175.167 23.9279 181.167 22.2479 187.791 22.2479C191.727 22.2479 195.375 22.8239 198.735 23.9759C202.095 25.1279 205.071 26.7599 207.663 28.8719C210.351 30.8879 212.559 33.2879 214.287 36.0719C216.111 38.7599 217.359 41.6879 218.031 44.8559L214.863 43.2719L215.295 23.8319H226.095V98.9999H215.151V80.5679L218.031 78.6959C217.359 81.5759 216.063 84.3599 214.143 87.0479C212.223 89.6399 209.871 91.9439 207.087 93.9599C204.399 95.9759 201.327 97.5599 197.871 98.7119C194.511 99.8639 190.959 100.44 187.215 100.44ZM189.663 90.0719C194.655 90.0719 199.119 88.8719 203.055 86.4719C206.991 83.9759 210.063 80.5679 212.271 76.2479C214.575 71.8319 215.727 66.8399 215.727 61.2719C215.727 55.7039 214.575 50.7599 212.271 46.4399C210.063 42.1199 206.991 38.7119 203.055 36.2159C199.119 33.7199 194.655 32.4719 189.663 32.4719C184.575 32.4719 180.063 33.7199 176.127 36.2159C172.287 38.7119 169.215 42.1199 166.911 46.4399C164.703 50.7599 163.599 55.7039 163.599 61.2719C163.599 66.7439 164.703 71.6879 166.911 76.1039C169.119 80.4239 172.191 83.8319 176.127 86.3279C180.063 88.8239 184.575 90.0719 189.663 90.0719Z" fill="white"/>
<path d="M239.216 98.9999V23.8319H249.872L250.304 39.5279L248.576 40.2479C249.536 36.9839 251.408 34.0079 254.192 31.3199C256.976 28.6319 260.288 26.4719 264.128 24.8399C268.064 23.1119 272.096 22.2479 276.224 22.2479C281.792 22.2479 286.448 23.3519 290.192 25.5599C293.936 27.7679 296.768 31.1759 298.688 35.7839C300.608 40.3919 301.568 46.2479 301.568 53.3519L301.5 99L290.624 98.9999V53.9279C290.624 48.9359 289.952 44.8559 288.608 41.6879C287.36 38.4239 285.392 36.0239 282.704 34.4879C280.016 32.9519 276.704 32.2319 272.768 32.3279C269.504 32.3279 266.48 32.9039 263.696 34.0559C260.912 35.1119 258.512 36.5999 256.496 38.5199C254.48 40.4399 252.896 42.6479 251.744 45.1439C250.592 47.6399 250.016 50.3279 250.016 53.2079V98.9999H244.688C244.016 98.9999 243.248 98.9999 242.384 98.9999C241.52 98.9999 240.464 98.9999 239.216 98.9999Z" fill="white"/>
<path d="M194.092 204C186.673 204 180.063 202.434 174.261 199.303C168.555 196.171 164.084 191.796 160.851 186.178C157.617 180.559 156 174.112 156 166.835C156 161.217 156.904 156.151 158.711 151.638C160.518 147.033 163.038 143.026 166.272 139.618C169.601 136.21 173.548 133.585 178.113 131.743C182.678 129.809 187.624 128.842 192.95 128.842C197.991 128.842 202.556 129.717 206.646 131.467C210.831 133.217 214.397 135.658 217.346 138.789C220.389 141.829 222.672 145.467 224.194 149.704C225.716 153.941 226.381 158.592 226.191 163.658L226.048 168.493H163.989L162.42 159.789H217.917L215.349 162.138V158.822C215.158 155.507 214.16 152.329 212.353 149.289C210.546 146.158 207.978 143.625 204.649 141.691C201.415 139.757 197.515 138.789 192.95 138.789C187.624 138.789 183.011 139.849 179.112 141.967C175.212 143.993 172.216 147.033 170.124 151.085C168.031 155.138 166.985 160.158 166.985 166.145C166.985 171.855 168.127 176.829 170.409 181.066C172.692 185.211 175.926 188.434 180.11 190.737C184.39 193.039 189.526 194.191 195.518 194.191C199.037 194.191 202.509 193.638 205.933 192.533C209.452 191.336 213.304 189.033 217.489 185.625L223.052 193.086C220.865 195.204 218.249 197.092 215.206 198.75C212.162 200.316 208.834 201.605 205.219 202.618C201.605 203.539 197.896 204 194.092 204Z" fill="white"/>
<path d="M263.979 204C257.226 204 251.139 202.388 245.718 199.164C240.392 195.941 236.16 191.52 233.021 185.901C229.977 180.191 228.456 173.743 228.456 166.559C228.456 159.283 230.025 152.835 233.164 147.217C236.302 141.507 240.535 137.039 245.861 133.816C251.187 130.592 257.179 128.98 263.836 128.98C267.546 128.98 271.112 129.533 274.536 130.638C278.055 131.743 281.194 133.309 283.952 135.335C286.71 137.27 288.969 139.47 290.776 142.049C292.583 144.536 293.701 147.217 294.081 149.98L290.8 148.875L290.625 99H301.5V202.618H290.943L290.657 184.658L293.368 183.691C292.988 186.27 291.894 188.803 290.087 191.289C288.375 193.684 286.187 195.849 283.524 197.783C280.861 199.717 277.818 201.237 274.394 202.342C271.065 203.447 267.593 204 263.979 204ZM265.548 194.467C270.494 194.467 274.917 193.27 278.816 190.875C282.716 188.48 285.759 185.164 287.947 180.928C290.229 176.691 291.371 171.855 291.371 166.421C291.371 160.987 290.229 156.197 287.947 152.053C285.759 147.816 282.716 144.5 278.816 142.105C274.917 139.618 270.494 138.375 265.548 138.375C260.413 138.375 255.895 139.618 251.995 142.105C248.191 144.5 245.147 147.816 242.865 152.053C240.677 156.197 239.583 160.987 239.583 166.421C239.583 171.763 240.677 176.553 242.865 180.789C245.052 185.026 248.096 188.388 251.995 190.875C255.895 193.27 260.413 194.467 265.548 194.467Z" fill="white"/>
<path d="M317.157 202.618V130.5H327.857V202.618H317.157ZM322.435 114.888C319.772 114.888 317.727 114.243 316.301 112.954C314.969 111.572 314.303 109.73 314.303 107.428C314.303 105.125 315.017 103.283 316.443 101.901C317.87 100.52 319.867 99.8289 322.435 99.8289C325.003 99.8289 327.001 100.52 328.427 101.901C329.854 103.191 330.567 105.033 330.567 107.428C330.567 109.638 329.854 111.434 328.427 112.816C327.001 114.197 325.003 114.888 322.435 114.888Z" fill="white"/>
<path d="M372.481 204C366.013 204 360.164 202.388 354.933 199.164C349.702 195.849 345.564 191.382 342.521 185.763C339.477 180.053 337.956 173.605 337.956 166.421C337.956 159.145 339.525 152.697 342.664 147.079C345.802 141.46 349.987 137.039 355.218 133.816C360.544 130.592 366.489 128.98 373.051 128.98C376.951 128.98 380.565 129.533 383.894 130.638C387.223 131.743 390.171 133.309 392.739 135.335C395.402 137.27 397.59 139.572 399.301 142.243C401.109 144.822 402.345 147.632 403.011 150.671L399.872 149.151L400.3 130.5H411V202.618H400.157V184.934L403.011 183.138C402.345 185.901 401.061 188.572 399.159 191.151C397.257 193.638 394.926 195.849 392.168 197.783C389.505 199.717 386.462 201.237 383.038 202.342C379.709 203.447 376.19 204 372.481 204ZM374.906 194.053C379.852 194.053 384.274 192.901 388.174 190.599C392.073 188.204 395.117 184.934 397.304 180.789C399.587 176.553 400.728 171.763 400.728 166.421C400.728 161.079 399.587 156.335 397.304 152.191C395.117 148.046 392.073 144.776 388.174 142.382C384.274 139.987 379.852 138.789 374.906 138.789C369.865 138.789 365.395 139.987 361.495 142.382C357.691 144.776 354.647 148.046 352.365 152.191C350.177 156.335 349.083 161.079 349.083 166.421C349.083 171.671 350.177 176.414 352.365 180.651C354.552 184.796 357.596 188.066 361.495 190.461C365.395 192.855 369.865 194.053 374.906 194.053Z" fill="white"/>
<rect width="27" height="27" fill="white"/>
</svg>
