<svg width="536" height="221" viewBox="0 0 536 221" fill="none" xmlns="http://www.w3.org/2000/svg">
<path d="M40.6289 180.64C34.8361 180.64 29.5971 179.317 24.9117 176.672C20.2264 173.941 16.4781 170.059 13.6669 165.024C10.9409 159.904 9.5779 153.675 9.5779 146.336C9.5779 138.997 11.0687 132.535 13.7947 127.5C16.5207 122.38 20.0986 118.773 24.784 116.128C29.4693 113.483 34.751 112.16 40.6289 112.16C47.018 112.16 52.7256 113.611 57.7517 116.512C62.863 119.328 66.8669 123.339 69.7633 128.544C72.6596 133.664 74.1078 139.595 74.1078 146.336C74.1078 153.163 72.6596 159.136 69.7633 164.256C66.8669 169.376 62.863 173.387 57.7517 176.288C52.7256 179.189 47.018 180.64 40.6289 180.64ZM6 204.832L6.32188 145.383C6.38943 132.908 13.5517 121.558 24.784 116.128L19.3772 125.178C16.2958 130.335 14.4812 136.15 14.0822 142.144L13.9975 143.417C13.8625 145.445 13.8904 147.481 14.081 149.504L15.0725 160.032V204.832H6ZM39.99 172.576C44.7606 172.576 49.02 171.509 52.7682 169.376C56.5165 167.157 59.4981 164.085 61.713 160.16C63.9279 156.149 65.0353 151.541 65.0353 146.336C65.0353 141.131 63.9279 136.565 61.713 132.64C59.4981 128.715 56.5165 125.643 52.7682 123.424C49.02 121.205 44.7606 120.096 39.99 120.096C35.2195 120.096 30.9175 121.205 27.084 123.424C23.3358 125.643 20.3542 128.715 18.1393 132.64C16.0096 136.565 14.9447 141.131 14.9447 146.336C14.9447 151.541 16.0096 156.149 18.1393 160.16C20.3542 164.085 23.3358 167.157 27.084 169.376C30.9175 171.509 35.2195 172.576 39.99 172.576Z" fill="#F2F2F2"/>
<path d="M107.11 183.28C101.307 183.28 96.0592 181.787 91.3659 178.8C86.6725 175.728 82.9605 171.589 80.2299 166.384C77.4992 161.093 76.1339 155.12 76.1339 148.464C76.1339 141.723 77.5419 135.749 80.3579 130.544C83.1739 125.339 86.9285 121.243 91.6219 118.256C96.4005 115.269 101.734 113.776 107.622 113.776C111.121 113.776 114.363 114.288 117.35 115.312C120.337 116.336 122.982 117.787 125.286 119.664C127.675 121.456 129.638 123.589 131.174 126.064C132.795 128.453 133.905 131.056 134.502 133.872L131.686 132.464L132.07 115.184H141.67V182H131.942V165.616L134.502 163.952C133.905 166.512 132.753 168.987 131.046 171.376C129.339 173.68 127.249 175.728 124.774 177.52C122.385 179.312 119.654 180.72 116.582 181.744C113.595 182.768 110.438 183.28 107.11 183.28ZM109.286 174.064C113.723 174.064 117.691 172.997 121.19 170.864C124.689 168.645 127.419 165.616 129.382 161.776C131.43 157.851 132.454 153.413 132.454 148.464C132.454 143.515 131.43 139.12 129.382 135.28C127.419 131.44 124.689 128.411 121.19 126.192C117.691 123.973 113.723 122.864 109.286 122.864C104.763 122.864 100.753 123.973 97.2539 126.192C93.8405 128.411 91.1099 131.44 89.0619 135.28C87.0992 139.12 86.1179 143.515 86.1179 148.464C86.1179 153.328 87.0992 157.723 89.0619 161.648C91.0245 165.488 93.7552 168.517 97.2539 170.736C100.753 172.955 104.763 174.064 109.286 174.064ZM153.333 182V115.184H162.805L163.189 129.136L161.653 129.776C162.506 126.875 164.17 124.229 166.645 121.84C169.12 119.451 172.064 117.531 175.477 116.08C178.976 114.544 182.56 113.776 186.229 113.776C191.178 113.776 195.317 114.757 198.645 116.72C201.973 118.683 204.49 121.712 206.197 125.808C207.904 129.904 208.757 135.109 208.757 141.424V182H199.029V141.936C199.029 137.499 198.432 133.872 197.237 131.056C196.128 128.155 194.378 126.021 191.989 124.656C189.6 123.291 186.656 122.651 183.157 122.736C180.256 122.736 177.568 123.248 175.093 124.272C172.618 125.211 170.485 126.533 168.693 128.24C166.901 129.947 165.493 131.909 164.469 134.128C163.445 136.347 162.933 138.736 162.933 141.296V182H158.197C157.6 182 156.917 182 156.149 182C155.381 182 154.442 182 153.333 182Z" fill="#F2F2F2"/>
<path d="M251.203 181.48C245.41 181.48 240.171 180.157 235.485 177.512C230.8 174.781 227.052 170.899 224.241 165.864C221.515 160.744 220.152 154.515 220.152 147.176C220.152 139.837 221.642 133.375 224.368 128.34C227.094 123.22 230.672 119.613 235.358 116.968C240.043 114.323 245.325 113 251.203 113C257.592 113 263.299 114.451 268.325 117.352C273.437 120.168 277.441 124.179 280.337 129.384C283.233 134.504 284.682 140.435 284.682 147.176C284.682 154.003 283.233 159.976 280.337 165.096C277.441 170.216 273.437 174.227 268.325 177.128C263.299 180.029 257.592 181.48 251.203 181.48ZM216.574 205.672L216.896 146.223C216.963 133.748 224.125 122.398 235.358 116.968L229.951 126.018C226.87 131.175 225.055 136.99 224.656 142.984L224.571 144.257C224.436 146.285 224.464 148.321 224.655 150.344L225.646 160.872V205.672H216.574ZM250.564 173.416C255.334 173.416 259.594 172.349 263.342 170.216C267.09 167.997 270.072 164.925 272.287 161C274.502 156.989 275.609 152.381 275.609 147.176C275.609 141.971 274.502 137.405 272.287 133.48C270.072 129.555 267.09 126.483 263.342 124.264C259.594 122.045 255.334 120.936 250.564 120.936C245.793 120.936 241.491 122.045 237.658 124.264C233.909 126.483 230.928 129.555 228.713 133.48C226.583 137.405 225.518 141.971 225.518 147.176C225.518 152.381 226.583 156.989 228.713 161C230.928 164.925 233.909 167.997 237.658 170.216C241.491 172.349 245.793 173.416 250.564 173.416Z" fill="#F2F2F2"/>
<path d="M322.906 183.28C316.25 183.28 310.32 181.829 305.114 178.928C299.994 176.027 295.984 171.973 293.082 166.768C290.181 161.563 288.73 155.589 288.73 148.848C288.73 143.643 289.541 138.949 291.162 134.768C292.784 130.501 295.045 126.789 297.946 123.632C300.933 120.475 304.474 118.043 308.57 116.336C312.666 114.544 317.104 113.648 321.882 113.648C326.405 113.648 330.501 114.459 334.171 116.08C337.925 117.701 341.125 119.963 343.771 122.864C346.501 125.68 348.549 129.051 349.914 132.976C351.28 136.901 351.877 141.211 351.706 145.904L351.578 150.384H295.898L294.49 142.32H344.283L341.979 144.496V141.424C341.808 138.352 340.912 135.408 339.291 132.592C337.669 129.691 335.365 127.344 332.378 125.552C329.477 123.76 325.979 122.864 321.882 122.864C317.104 122.864 312.965 123.845 309.466 125.808C305.968 127.685 303.28 130.501 301.402 134.256C299.525 138.011 298.586 142.661 298.586 148.208C298.586 153.499 299.61 158.107 301.658 162.032C303.706 165.872 306.608 168.859 310.362 170.992C314.202 173.125 318.81 174.192 324.187 174.192C327.344 174.192 330.458 173.68 333.53 172.656C336.688 171.547 340.144 169.413 343.898 166.256L348.891 173.168C346.928 175.131 344.581 176.88 341.851 178.416C339.12 179.867 336.133 181.061 332.89 182C329.648 182.853 326.32 183.28 322.906 183.28ZM385.438 183.28C379.379 183.28 373.917 181.787 369.053 178.8C364.275 175.813 360.477 171.717 357.661 166.512C354.931 161.221 353.565 155.248 353.565 148.592C353.565 141.851 354.973 135.877 357.789 130.672C360.605 125.381 364.403 121.243 369.181 118.256C373.96 115.269 379.336 113.776 385.309 113.776C388.637 113.776 391.837 114.288 394.91 115.312C398.067 116.336 400.883 117.787 403.357 119.664C405.832 121.456 407.88 123.547 409.501 125.936C411.123 128.24 412.104 130.672 412.445 133.232L409.501 132.208V87.28H419.102V182H409.63L409.374 165.36L411.806 164.464C411.464 166.853 410.483 169.2 408.861 171.504C407.325 173.723 405.363 175.728 402.973 177.52C400.584 179.312 397.853 180.72 394.781 181.744C391.795 182.768 388.68 183.28 385.438 183.28ZM386.845 174.448C391.283 174.448 395.251 173.339 398.75 171.12C402.248 168.901 404.979 165.829 406.941 161.904C408.989 157.979 410.014 153.499 410.014 148.464C410.014 143.429 408.989 138.992 406.941 135.152C404.979 131.227 402.248 128.155 398.75 125.936C395.251 123.632 391.283 122.48 386.845 122.48C382.237 122.48 378.184 123.632 374.685 125.936C371.272 128.155 368.541 131.227 366.493 135.152C364.531 138.992 363.549 143.429 363.549 148.464C363.549 153.413 364.531 157.851 366.493 161.776C368.456 165.701 371.187 168.816 374.685 171.12C378.184 173.339 382.237 174.448 386.845 174.448ZM433.321 182V115.184H442.921V182H433.321ZM438.057 100.72C435.668 100.72 433.833 100.123 432.553 98.928C431.359 97.648 430.761 95.9413 430.761 93.808C430.761 91.6747 431.401 89.968 432.681 88.688C433.961 87.408 435.753 86.768 438.057 86.768C440.361 86.768 442.153 87.408 443.433 88.688C444.713 89.8827 445.353 91.5893 445.353 93.808C445.353 95.856 444.713 97.52 443.433 98.8C442.153 100.08 440.361 100.72 438.057 100.72ZM482.959 183.28C477.156 183.28 471.908 181.787 467.215 178.8C462.521 175.728 458.809 171.589 456.079 166.384C453.348 161.093 451.983 155.12 451.983 148.464C451.983 141.723 453.391 135.749 456.207 130.544C459.023 125.339 462.777 121.243 467.471 118.256C472.249 115.269 477.583 113.776 483.471 113.776C486.969 113.776 490.212 114.288 493.199 115.312C496.185 116.336 498.831 117.787 501.135 119.664C503.524 121.456 505.487 123.589 507.023 126.064C508.644 128.453 509.753 131.056 510.351 133.872L507.535 132.464L507.919 115.184H517.519V182H507.791V165.616L510.351 163.952C509.753 166.512 508.601 168.987 506.895 171.376C505.188 173.68 503.097 175.728 500.623 177.52C498.233 179.312 495.503 180.72 492.431 181.744C489.444 182.768 486.287 183.28 482.959 183.28ZM485.135 174.064C489.572 174.064 493.54 172.997 497.039 170.864C500.537 168.645 503.268 165.616 505.231 161.776C507.279 157.851 508.303 153.413 508.303 148.464C508.303 143.515 507.279 139.12 505.231 135.28C503.268 131.44 500.537 128.411 497.039 126.192C493.54 123.973 489.572 122.864 485.135 122.864C480.612 122.864 476.601 123.973 473.103 126.192C469.689 128.411 466.959 131.44 464.911 135.28C462.948 139.12 461.967 143.515 461.967 148.464C461.967 153.328 462.948 157.723 464.911 161.648C466.873 165.488 469.604 168.517 473.103 170.736C476.601 172.955 480.612 174.064 485.135 174.064Z" fill="#F2F2F2"/>
<path d="M26.264 67.67C22.9587 67.67 19.899 67.0893 17.085 65.928C14.3157 64.722 11.8813 63.047 9.782 60.903C7.72733 58.759 6.11933 56.2353 4.958 53.332C3.84133 50.384 3.283 47.168 3.283 43.684C3.283 40.2 3.84133 37.0063 4.958 34.103C6.11933 31.155 7.72733 28.609 9.782 26.465C11.8813 24.2763 14.3157 22.6013 17.085 21.44C19.899 20.234 22.9587 19.631 26.264 19.631C29.614 19.631 32.6737 20.234 35.443 21.44C38.257 22.6013 40.6913 24.2763 42.746 26.465C44.8453 28.609 46.4533 31.155 47.57 34.103C48.7313 37.0063 49.312 40.2 49.312 43.684C49.312 47.1233 48.7313 50.317 47.57 53.265C46.4533 56.1683 44.8453 58.7143 42.746 60.903C40.6913 63.047 38.257 64.722 35.443 65.928C32.6737 67.0893 29.614 67.67 26.264 67.67ZM26.264 62.511C28.81 62.511 31.155 62.0643 33.299 61.171C35.4877 60.233 37.3637 58.9153 38.927 57.218C40.4903 55.5207 41.6963 53.533 42.545 51.255C43.4383 48.9323 43.885 46.4087 43.885 43.684C43.885 40.9147 43.4383 38.391 42.545 36.113C41.6963 33.7903 40.4903 31.7803 38.927 30.083C37.3637 28.3857 35.4877 27.068 33.299 26.13C31.155 25.192 28.81 24.723 26.264 24.723C23.718 24.723 21.3507 25.192 19.162 26.13C17.018 27.068 15.1643 28.3857 13.601 30.083C12.0377 31.7803 10.8317 33.7903 9.983 36.113C9.13433 38.391 8.71 40.9147 8.71 43.684C8.71 46.4087 9.13433 48.9323 9.983 51.255C10.8317 53.533 12.0377 55.5207 13.601 57.218C15.1643 58.9153 17.018 60.233 19.162 61.171C21.3507 62.0643 23.718 62.511 26.264 62.511ZM53.9455 67V17.42H58.9705V67H53.9455ZM78.189 67.67C75.1517 67.67 72.4047 66.8883 69.948 65.325C67.4913 63.717 65.5483 61.5507 64.119 58.826C62.6897 56.0567 61.975 52.93 61.975 49.446C61.975 45.9173 62.712 42.7907 64.186 40.066C65.66 37.3413 67.6253 35.1973 70.082 33.634C72.5833 32.0707 75.375 31.289 78.457 31.289C80.2883 31.289 81.9857 31.557 83.549 32.093C85.1123 32.629 86.497 33.3883 87.703 34.371C88.9537 35.309 89.981 36.4257 90.785 37.721C91.6337 38.9717 92.2143 40.334 92.527 41.808L91.053 41.071L91.254 32.026H96.279V67H91.187V58.424L92.527 57.553C92.2143 58.893 91.6113 60.1883 90.718 61.439C89.8247 62.645 88.7303 63.717 87.435 64.655C86.1843 65.593 84.755 66.33 83.147 66.866C81.5837 67.402 79.931 67.67 78.189 67.67ZM79.328 62.846C81.6507 62.846 83.7277 62.2877 85.559 61.171C87.3903 60.0097 88.8197 58.424 89.847 56.414C90.919 54.3593 91.455 52.0367 91.455 49.446C91.455 46.8553 90.919 44.555 89.847 42.545C88.8197 40.535 87.3903 38.9493 85.559 37.788C83.7277 36.6267 81.6507 36.046 79.328 36.046C76.9607 36.046 74.8613 36.6267 73.03 37.788C71.2433 38.9493 69.814 40.535 68.742 42.545C67.7147 44.555 67.201 46.8553 67.201 49.446C67.201 51.992 67.7147 54.2923 68.742 56.347C69.7693 58.357 71.1987 59.9427 73.03 61.104C74.8613 62.2653 76.9607 62.846 79.328 62.846ZM76.179 26.867L74.37 24.12L83.884 16.147L87.167 20.368L76.179 26.867ZM103.054 78.055L101.178 75.643C102.607 74.7943 103.724 73.8787 104.528 72.896C105.332 71.9133 105.734 70.9753 105.734 70.082C105.734 69.5907 105.645 69.1217 105.466 68.675C105.287 68.2283 104.841 67.67 104.126 67C103.501 66.4193 103.032 65.861 102.719 65.325C102.451 64.789 102.317 64.2307 102.317 63.65C102.317 62.7567 102.63 62.042 103.255 61.506C103.88 60.9253 104.707 60.635 105.734 60.635C106.761 60.635 107.655 60.903 108.414 61.439C109.173 61.975 109.754 62.7343 110.156 63.717C110.603 64.655 110.826 65.7717 110.826 67.067C110.826 68.273 110.647 69.3897 110.29 70.417C109.933 71.489 109.419 72.494 108.749 73.432C108.079 74.37 107.275 75.2187 106.337 75.978C105.399 76.7373 104.305 77.4297 103.054 78.055ZM148.232 67.67C146.579 67.67 144.971 67.4243 143.408 66.933C141.844 66.397 140.415 65.6823 139.12 64.789C137.869 63.8957 136.797 62.8683 135.904 61.707C135.055 60.5457 134.474 59.3397 134.162 58.089L135.636 58.156L135.435 66.933H130.477V17.42H135.502V40.401L134.497 40.669C134.809 39.4183 135.368 38.2347 136.172 37.118C137.02 35.9567 138.07 34.9517 139.321 34.103C140.571 33.2097 141.934 32.5173 143.408 32.026C144.926 31.5347 146.49 31.289 148.098 31.289C151.224 31.289 154.016 32.0707 156.473 33.634C158.974 35.1973 160.962 37.3413 162.436 40.066C163.91 42.7907 164.647 45.9173 164.647 49.446C164.647 52.9747 163.932 56.1237 162.503 58.893C161.073 61.6177 159.108 63.7617 156.607 65.325C154.15 66.8883 151.358 67.67 148.232 67.67ZM147.428 62.913C149.795 62.913 151.894 62.3323 153.726 61.171C155.557 59.965 156.986 58.357 158.014 56.347C159.086 54.2923 159.622 51.992 159.622 49.446C159.622 46.8553 159.086 44.555 158.014 42.545C156.986 40.535 155.557 38.9493 153.726 37.788C151.894 36.6267 149.795 36.046 147.428 36.046C145.06 36.046 142.961 36.6267 141.13 37.788C139.298 38.9493 137.847 40.535 136.775 42.545C135.747 44.555 135.234 46.8553 135.234 49.446C135.234 52.0367 135.747 54.3593 136.775 56.414C137.847 58.424 139.298 60.0097 141.13 61.171C142.961 62.3323 145.06 62.913 147.428 62.913ZM183.684 67.67C180.2 67.67 177.096 66.9107 174.371 65.392C171.691 63.8733 169.592 61.7517 168.073 59.027C166.554 56.3023 165.795 53.1757 165.795 49.647C165.795 46.9223 166.219 44.4657 167.068 42.277C167.917 40.0437 169.1 38.1007 170.619 36.448C172.182 34.7953 174.036 33.5223 176.18 32.629C178.324 31.691 180.647 31.222 183.148 31.222C185.515 31.222 187.659 31.6463 189.58 32.495C191.545 33.3437 193.22 34.5273 194.605 36.046C196.034 37.52 197.106 39.2843 197.821 41.339C198.536 43.3937 198.848 45.6493 198.759 48.106L198.692 50.451H169.547L168.81 46.23H194.873L193.667 47.369V45.761C193.578 44.153 193.109 42.612 192.26 41.138C191.411 39.6193 190.205 38.391 188.642 37.453C187.123 36.515 185.292 36.046 183.148 36.046C180.647 36.046 178.48 36.5597 176.649 37.587C174.818 38.5697 173.411 40.0437 172.428 42.009C171.445 43.9743 170.954 46.4087 170.954 49.312C170.954 52.0813 171.49 54.4933 172.562 56.548C173.634 58.558 175.153 60.1213 177.118 61.238C179.128 62.3547 181.54 62.913 184.354 62.913C186.007 62.913 187.637 62.645 189.245 62.109C190.898 61.5283 192.707 60.4117 194.672 58.759L197.285 62.377C196.258 63.4043 195.029 64.32 193.6 65.124C192.171 65.8833 190.607 66.5087 188.91 67C187.213 67.4467 185.471 67.67 183.684 67.67ZM202.144 67V32.026H207.169L207.303 39.999L206.298 40.334C206.656 38.994 207.236 37.788 208.04 36.716C208.889 35.5993 209.894 34.639 211.055 33.835C212.217 33.031 213.49 32.428 214.874 32.026C216.259 31.5793 217.711 31.356 219.229 31.356C221.061 31.356 222.691 31.6687 224.12 32.294C225.594 32.8747 226.823 33.902 227.805 35.376C228.833 36.8053 229.614 38.7037 230.15 41.071L228.944 40.468L229.413 39.329C229.86 38.3017 230.508 37.319 231.356 36.381C232.25 35.3983 233.255 34.5273 234.371 33.768C235.533 33.0087 236.783 32.428 238.123 32.026C239.508 31.5793 240.915 31.356 242.344 31.356C244.801 31.356 246.878 31.892 248.575 32.964C250.273 33.9913 251.546 35.577 252.394 37.721C253.288 39.865 253.734 42.5897 253.734 45.895V67H248.575V46.163C248.575 43.8403 248.285 41.942 247.704 40.468C247.124 38.994 246.253 37.8997 245.091 37.185C243.975 36.4257 242.545 36.046 240.803 36.046C239.285 36.046 237.878 36.314 236.582 36.85C235.332 37.3413 234.237 38.056 233.299 38.994C232.406 39.8873 231.691 40.9147 231.155 42.076C230.664 43.2373 230.418 44.488 230.418 45.828V67H225.326V46.096C225.326 43.8627 225.014 42.009 224.388 40.535C223.808 39.061 222.937 37.9443 221.775 37.185C220.614 36.4257 219.185 36.046 217.487 36.046C216.013 36.046 214.651 36.314 213.4 36.85C212.15 37.3413 211.055 38.0337 210.117 38.927C209.224 39.8203 208.509 40.8477 207.973 42.009C207.482 43.1703 207.236 44.421 207.236 45.761V67H202.144ZM258.433 50.853V45.828H277.327V50.853H258.433ZM293.109 67L278.369 32.026H283.93L295.588 60.635L294.248 61.372L307.045 32.026H312.405L296.727 67H293.109ZM315.962 67V32.026H320.987V67H315.962ZM318.441 24.455C317.19 24.455 316.23 24.1423 315.56 23.517C314.935 22.847 314.622 21.9537 314.622 20.837C314.622 19.7203 314.957 18.827 315.627 18.157C316.297 17.487 317.235 17.152 318.441 17.152C319.647 17.152 320.585 17.487 321.255 18.157C321.925 18.7823 322.26 19.6757 322.26 20.837C322.26 21.909 321.925 22.78 321.255 23.45C320.585 24.12 319.647 24.455 318.441 24.455ZM328.276 67V32.026H333.234L333.435 39.329L332.631 39.664C333.078 38.1453 333.949 36.7607 335.244 35.51C336.539 34.2593 338.08 33.2543 339.867 32.495C341.698 31.691 343.574 31.289 345.495 31.289C348.086 31.289 350.252 31.8027 351.994 32.83C353.736 33.8573 355.054 35.443 355.947 37.587C356.84 39.731 357.287 42.4557 357.287 45.761V67H352.195V46.029C352.195 43.7063 351.882 41.808 351.257 40.334C350.676 38.8153 349.761 37.6987 348.51 36.984C347.259 36.2693 345.718 35.9343 343.887 35.979C342.368 35.979 340.961 36.247 339.666 36.783C338.371 37.2743 337.254 37.9667 336.316 38.86C335.378 39.7533 334.641 40.7807 334.105 41.942C333.569 43.1033 333.301 44.354 333.301 45.694V67H330.822C330.509 67 330.152 67 329.75 67C329.348 67 328.857 67 328.276 67ZM377.398 67.67C374.227 67.67 371.368 66.8883 368.822 65.325C366.321 63.7617 364.333 61.6177 362.859 58.893C361.43 56.1237 360.715 52.997 360.715 49.513C360.715 45.9843 361.452 42.8577 362.926 40.133C364.4 37.3637 366.388 35.1973 368.889 33.634C371.391 32.0707 374.205 31.289 377.331 31.289C379.073 31.289 380.748 31.557 382.356 32.093C384.009 32.629 385.483 33.3883 386.778 34.371C388.074 35.309 389.146 36.4033 389.994 37.654C390.843 38.86 391.357 40.133 391.535 41.473L389.994 40.937V17.42H395.019V67H390.061L389.927 58.29L391.2 57.821C391.022 59.0717 390.508 60.3 389.659 61.506C388.855 62.6673 387.828 63.717 386.577 64.655C385.327 65.593 383.897 66.33 382.289 66.866C380.726 67.402 379.096 67.67 377.398 67.67ZM378.135 63.047C380.458 63.047 382.535 62.4663 384.366 61.305C386.198 60.1437 387.627 58.5357 388.654 56.481C389.726 54.4263 390.262 52.0813 390.262 49.446C390.262 46.8107 389.726 44.488 388.654 42.478C387.627 40.4233 386.198 38.8153 384.366 37.654C382.535 36.448 380.458 35.845 378.135 35.845C375.723 35.845 373.602 36.448 371.77 37.654C369.984 38.8153 368.554 40.4233 367.482 42.478C366.455 44.488 365.941 46.8107 365.941 49.446C365.941 52.0367 366.455 54.3593 367.482 56.414C368.51 58.4687 369.939 60.099 371.77 61.305C373.602 62.4663 375.723 63.047 378.135 63.047ZM416.6 67.67C413.116 67.67 410.011 66.8883 407.287 65.325C404.607 63.7617 402.485 61.5953 400.922 58.826C399.403 56.0567 398.644 52.9077 398.644 49.379C398.644 45.895 399.403 42.7907 400.922 40.066C402.485 37.3413 404.607 35.1973 407.287 33.634C410.011 32.0707 413.116 31.289 416.6 31.289C420.039 31.289 423.099 32.0707 425.779 33.634C428.503 35.1973 430.625 37.3413 432.144 40.066C433.707 42.7907 434.489 45.895 434.489 49.379C434.489 52.9077 433.707 56.0567 432.144 58.826C430.625 61.5953 428.503 63.7617 425.779 65.325C423.099 66.8883 420.039 67.67 416.6 67.67ZM416.6 62.913C419.056 62.913 421.245 62.3323 423.166 61.171C425.086 59.965 426.583 58.357 427.655 56.347C428.727 54.2923 429.263 51.9697 429.263 49.379C429.263 46.7883 428.727 44.488 427.655 42.478C426.583 40.468 425.086 38.9047 423.166 37.788C421.245 36.6267 419.056 36.046 416.6 36.046C414.143 36.046 411.932 36.6267 409.967 37.788C408.046 38.9047 406.527 40.4903 405.411 42.545C404.339 44.555 403.825 46.833 403.87 49.379C403.825 51.9697 404.339 54.2923 405.411 56.347C406.527 58.357 408.046 59.965 409.967 61.171C411.932 62.3323 414.143 62.913 416.6 62.913ZM466.896 67.67C463.859 67.67 461.112 66.8883 458.655 65.325C456.199 63.717 454.256 61.5507 452.826 58.826C451.397 56.0567 450.682 52.93 450.682 49.446C450.682 45.9173 451.419 42.7907 452.893 40.066C454.367 37.3413 456.333 35.1973 458.789 33.634C461.291 32.0707 464.082 31.289 467.164 31.289C468.996 31.289 470.693 31.557 472.256 32.093C473.82 32.629 475.204 33.3883 476.41 34.371C477.661 35.309 478.688 36.4257 479.492 37.721C480.341 38.9717 480.922 40.334 481.234 41.808L479.76 41.071L479.961 32.026H484.986V67H479.894V58.424L481.234 57.553C480.922 58.893 480.319 60.1883 479.425 61.439C478.532 62.645 477.438 63.717 476.142 64.655C474.892 65.593 473.462 66.33 471.854 66.866C470.291 67.402 468.638 67.67 466.896 67.67ZM468.035 62.846C470.358 62.846 472.435 62.2877 474.266 61.171C476.098 60.0097 477.527 58.424 478.554 56.414C479.626 54.3593 480.162 52.0367 480.162 49.446C480.162 46.8553 479.626 44.555 478.554 42.545C477.527 40.535 476.098 38.9493 474.266 37.788C472.435 36.6267 470.358 36.046 468.035 36.046C465.668 36.046 463.569 36.6267 461.737 37.788C459.951 38.9493 458.521 40.535 457.449 42.545C456.422 44.555 455.908 46.8553 455.908 49.446C455.908 51.992 456.422 54.2923 457.449 56.347C458.477 58.357 459.906 59.9427 461.737 61.104C463.569 62.2653 465.668 62.846 468.035 62.846ZM506.568 67.67C503.084 67.67 499.98 66.8883 497.255 65.325C494.575 63.7617 492.453 61.5953 490.89 58.826C489.371 56.0567 488.612 52.9077 488.612 49.379C488.612 45.895 489.371 42.7907 490.89 40.066C492.453 37.3413 494.575 35.1973 497.255 33.634C499.98 32.0707 503.084 31.289 506.568 31.289C510.007 31.289 513.067 32.0707 515.747 33.634C518.472 35.1973 520.593 37.3413 522.112 40.066C523.676 42.7907 524.457 45.895 524.457 49.379C524.457 52.9077 523.676 56.0567 522.112 58.826C520.593 61.5953 518.472 63.7617 515.747 65.325C513.067 66.8883 510.007 67.67 506.568 67.67ZM506.568 62.913C509.025 62.913 511.213 62.3323 513.134 61.171C515.055 59.965 516.551 58.357 517.623 56.347C518.695 54.2923 519.231 51.9697 519.231 49.379C519.231 46.7883 518.695 44.488 517.623 42.478C516.551 40.468 515.055 38.9047 513.134 37.788C511.213 36.6267 509.025 36.046 506.568 36.046C504.111 36.046 501.9 36.6267 499.935 37.788C498.014 38.9047 496.496 40.4903 495.379 42.545C494.307 44.555 493.793 46.833 493.838 49.379C493.793 51.9697 494.307 54.2923 495.379 56.347C496.496 58.357 498.014 59.965 499.935 61.171C501.9 62.3323 504.111 62.913 506.568 62.913Z" fill="#F2F2F2"/>
</svg>
