<svg width="48" height="39" viewBox="0 0 48 39" fill="none" xmlns="http://www.w3.org/2000/svg">
<path d="M0 18.999L10.5548 27.4429V21.11H29.5536V16.8881H10.5548V10.5552L0 18.999Z" fill="#F2F2F2"/>
<path d="M28.2111 7.25353e-05C25.7149 -0.00684869 23.2422 0.481607 20.9361 1.43714C18.6301 2.39268 16.5366 3.7963 14.7769 5.56669L17.7618 8.5516C20.5525 5.7609 24.2635 4.22201 28.2111 4.22201C32.1586 4.22201 35.8696 5.7609 38.6603 8.5516C41.451 11.3423 42.9899 15.0534 42.9899 19.0009C42.9899 22.9484 41.451 26.6595 38.6603 29.4502C35.8696 32.2409 32.1586 33.7798 28.2111 33.7798C24.2635 33.7798 20.5525 32.2409 17.7618 29.4502L14.7769 32.4351C18.3634 36.0237 23.1342 38.0017 28.2111 38.0017C33.2879 38.0017 38.0587 36.0237 41.6453 32.4351C45.2339 28.8486 47.2119 24.0778 47.2119 19.0009C47.2119 13.924 45.2339 9.15323 41.6453 5.56669C39.8855 3.7963 37.792 2.39268 35.486 1.43714C33.1799 0.481607 30.7072 -0.00684869 28.2111 7.25353e-05Z" fill="#F2F2F2"/>
</svg>
