<svg width="37" height="51" viewBox="0 0 37 51" fill="none" xmlns="http://www.w3.org/2000/svg">
<path d="M20.5286 38.1112C17.7219 38.1112 15.1834 37.4475 12.9132 36.1202C10.6431 34.75 8.82692 32.8018 7.46482 30.2756C6.14399 27.7065 5.48358 24.5808 5.48358 20.8985C5.48358 17.2162 6.20591 13.9734 7.52673 11.4472C8.84756 8.87809 10.5811 7.06837 12.8513 5.74102C15.1215 4.41367 17.6806 3.75 20.5286 3.75C23.6243 3.75 26.3898 4.4779 28.825 5.9337C31.3016 7.34668 33.2416 9.35912 34.6449 11.971C36.0483 14.5401 36.75 17.5159 36.75 20.8985C36.75 24.3239 36.0483 27.3211 34.6449 29.8902C33.2416 32.4592 31.3016 34.4717 28.825 35.9275C26.3898 37.3833 23.6243 38.1112 20.5286 38.1112ZM3.75 50.25L3.90744 20.1366C3.93934 14.0365 7.39657 8.47193 12.8513 5.74102L10.4953 9.82464C8.82766 12.7152 7.84879 15.9514 7.63477 19.2816C7.56285 20.4007 7.57774 21.5236 7.6793 22.6403L8.14587 27.7707V50.25H3.75ZM20.219 34.0649C22.5305 34.0649 24.5943 33.5297 26.4104 32.4593C28.2265 31.346 29.6712 29.8046 30.7444 27.8349C31.8176 25.8225 32.3541 23.5104 32.3541 20.8985C32.3541 18.2866 31.8176 15.9959 30.7444 14.0262C29.6712 12.0566 28.2265 10.5152 26.4104 9.40193C24.5943 8.28867 22.5305 7.73204 20.219 7.73204C17.9076 7.73204 15.8232 8.28867 13.9658 9.40193C12.1496 10.5152 10.705 12.0566 9.6318 14.0262C8.59991 15.9959 8.08396 18.2866 8.08396 20.8985C8.08396 23.5104 8.59991 25.8225 9.6318 27.8349C10.705 29.8046 12.1496 31.346 13.9658 32.4593C15.8232 33.5297 17.9076 34.0649 20.219 34.0649Z" fill="#00C5FF"/>
<rect width="6.75" height="6.75" fill="#292D32"/>
</svg>
