<svg width="18" height="18" viewBox="0 0 18 18" fill="none" xmlns="http://www.w3.org/2000/svg">
<path d="M8.99783 0.0079999H9.39083C8.10617 1.20171 7.28042 2.80784 7.05712 4.54722C6.83382 6.2866 7.22709 8.04923 8.16856 9.52873C9.11004 11.0082 10.5402 12.111 12.2104 12.6455C13.8807 13.1799 15.6854 13.1121 17.3108 12.454C16.6856 13.9585 15.6636 15.265 14.354 16.2343C13.0444 17.2035 11.4963 17.799 9.87474 17.9574C8.2532 18.1157 6.61909 17.831 5.14672 17.1334C3.67435 16.4358 2.41894 15.3517 1.51442 13.9966C0.609893 12.6415 0.0901794 11.0663 0.0107136 9.43897C-0.0687522 7.81166 0.295011 6.1933 1.0632 4.75651C1.83139 3.31973 2.97519 2.11842 4.37259 1.28073C5.76999 0.443043 7.36858 0.000392973 8.99783 0V0.0079999Z" fill="#F2F2F2"/>
</svg>
