<svg width="35" height="33" viewBox="0 0 35 33" fill="none" xmlns="http://www.w3.org/2000/svg">
<path d="M13.8092 26.0402C6.19729 26.0402 0 20.197 0 13.0201C0 5.84316 6.19729 0 13.8092 0C21.4211 0 27.6184 5.84316 27.6184 13.0201C27.6184 20.197 21.4211 26.0402 13.8092 26.0402ZM13.8092 1.90538C7.30202 1.90538 2.02086 6.89747 2.02086 13.0201C2.02086 19.1427 7.30202 24.1348 13.8092 24.1348C20.3163 24.1348 25.5975 19.1427 25.5975 13.0201C25.5975 6.89747 20.3163 1.90538 13.8092 1.90538Z" fill="#112157"/>
<path d="M32.6766 32.9999C32.0861 32.9999 31.4956 32.7949 31.0294 32.3557L24.8137 26.4993C23.9124 25.6501 23.9124 24.2446 24.8137 23.3954C25.7149 22.5463 27.2067 22.5463 28.108 23.3954L34.3238 29.2518C35.2251 30.101 35.2251 31.5065 34.3238 32.3557C33.8576 32.7949 33.2671 32.9999 32.6766 32.9999Z" fill="#112157"/>
</svg>
