<svg width="35" height="33" viewBox="0 0 35 33" fill="none" xmlns="http://www.w3.org/2000/svg">
<path d="M13.8092 26.0402C6.19729 26.0402 0 20.197 0 13.0201C0 5.84316 6.19729 0 13.8092 0C21.4211 0 27.6184 5.84316 27.6184 13.0201C27.6184 20.197 21.4211 26.0402 13.8092 26.0402ZM13.8092 1.90538C7.30202 1.90538 2.02086 6.89747 2.02086 13.0201C2.02086 19.1427 7.30202 24.1348 13.8092 24.1348C20.3163 24.1348 25.5975 19.1427 25.5975 13.0201C25.5975 6.89747 20.3163 1.90538 13.8092 1.90538Z" fill="#02042E"/>
<path d="M32.6766 33C32.0861 33 31.4956 32.7951 31.0294 32.3558L24.8137 26.4994C23.9124 25.6503 23.9124 24.2447 24.8137 23.3956C25.7149 22.5464 27.2067 22.5464 28.108 23.3956L34.3238 29.2519C35.2251 30.1011 35.2251 31.5067 34.3238 32.3558C33.8576 32.7951 33.2671 33 32.6766 33Z" fill="#02042E"/>
</svg>
