<svg width="36" height="47" viewBox="0 0 36 47" fill="none" xmlns="http://www.w3.org/2000/svg">
<path d="M6 39.0625V20.5C6 17.2179 7.26428 14.0703 9.51472 11.7496C11.7652 9.42879 14.8174 8.125 18 8.125C21.1826 8.125 24.2348 9.42879 26.4853 11.7496C28.7357 14.0703 30 17.2179 30 20.5V39.0625M6 39.0625H30M6 39.0625H2M30 39.0625H34M16 44.4167H20" stroke="#02042E" stroke-width="3.5" stroke-linecap="round" stroke-linejoin="round"/>
<path d="M18 9.875C20.1214 9.875 21.75 8.11693 21.75 6.0625C21.75 4.00807 20.1214 2.25 18 2.25C15.8786 2.25 14.25 4.00807 14.25 6.0625C14.25 8.11693 15.8786 9.875 18 9.875Z" stroke="#02042E" stroke-width="3.5"/>
</svg>
