<svg width="45" height="36" viewBox="0 0 45 36" fill="none" xmlns="http://www.w3.org/2000/svg">
<path d="M19.355 18.4015V34.0001H38.45C39.8472 34.0001 42.6416 33.2438 42.6416 30.2186V23.601C40.9339 23.2859 37.9843 21.7103 37.9843 18.4015" stroke="#D4D4D4" stroke-width="3"/>
<path d="M19.355 18.4015V2.33028H38.45C39.8472 2.33028 42.6416 3.08657 42.6416 6.11175V12.7293C40.9339 13.0444 37.9843 14.62 37.9843 17.9288" stroke="#D4D4D4" stroke-width="3"/>
<path d="M37.9844 17.9288V18.4015" stroke="#D4D4D4" stroke-width="3"/>
<path d="M14.6978 18.1652V2.33027H4.00454C3.22211 2.33027 1.65726 3.09802 1.65726 6.16903V12.8869C2.61356 13.2068 5.84884 14.8062 5.84884 18.1652" stroke="#D4D4D4" stroke-width="3"/>
<path d="M14.6978 18.1652V34.0001H4.00454C3.22211 34.0001 1.65726 33.2323 1.65726 30.1613V23.4435C2.61356 23.1236 5.84884 21.5241 5.84884 18.1652" stroke="#D4D4D4" stroke-width="3"/>
</svg>
